<svg xmlns="http://www.w3.org/2000/svg" width="512" height="512" viewBox="0 0 512 512">
  <defs>
    <linearGradient id="base-a" x1="100%" x2="50%" y1="5.663%" y2="50%">
      <stop offset="0%" stop-color="#007B55"/>
      <stop offset="100%" stop-color="#00AB55"/>
    </linearGradient>
    <linearGradient id="base-b" x1="50%" x2="50%" y1="0%" y2="100%">
      <stop offset="0%" stop-color="#5BE584"/>
      <stop offset="100%" stop-color="#00AB55"/>
    </linearGradient>
    <linearGradient id="base-c" x1="50%" x2="50%" y1="0%" y2="100%">
      <stop offset="0%" stop-color="#5BE584"/>
      <stop offset="100%" stop-color="#00AB55"/>
    </linearGradient>
  </defs>
  <g fill="none" fill-rule="evenodd" transform="translate(14 128)">
    <path fill="url(#base-a)" d="M92.8065878,83.1065019 C137.095432,105.995453 139.114526,107.041097 139.207257,107.086484 C139.219505,107.095212 139.849378,107.419903 184,130.239029 C157.928493,178.778549 141.306835,207.504951 134.131528,216.418236 C123.372941,229.788162 111.636301,239.911182 97.201704,245.752124 C66.8558062,260.014077 29.131642,260.680915 0,243.048113 L92.8065878,83.1065019 Z"/>
    <path fill="url(#base-b)" d="M430.310491,101.726093 C384.039698,20.7701656 336.210113,-55.5023464 281.267019,56.3823571 C273.750792,70.7657548 268.272453,98.7189579 256,98.7189579 L256,98.57693 C243.727547,98.57693 238.250943,70.6237268 230.734717,56.2403291 C175.789887,-55.6443743 127.960302,20.6281376 81.6895094,101.584065 C78.2073962,107.689513 74.8624151,113.516165 72,118.580075 C178.037811,51.4534614 169.11034,254.246569 256,255.857972 L256,256 C342.891396,254.388597 333.962189,51.5954894 440,118.72035 C437.139321,113.658193 433.79434,107.831541 430.310491,101.726093"/>
    <path fill="url(#base-c)" d="M436,256 C462.5088,256 484,234.5088 484,208 C484,181.4912 462.5088,160 436,160 C409.4912,160 388,181.4912 388,208 C388,234.5088 409.4912,256 436,256"/>
  </g>
</svg>
